<svg width="130" height="40" viewBox="0 0 130 40" fill="none" xmlns="http://www.w3.org/2000/svg">
<path d="M0 5C0 2.23858 2.23858 0 5 0H125C127.761 0 130 2.23858 130 5V35C130 37.7614 127.761 40 125 40H5C2.23858 40 0 37.7614 0 35V5Z" fill="#40196D"/>
<path fill-rule="evenodd" clip-rule="evenodd" d="M125 1H5C2.79086 1 1 2.79086 1 5V35C1 37.2091 2.79086 39 5 39H125C127.209 39 129 37.2091 129 35V5C129 2.79086 127.209 1 125 1ZM5 0C2.23858 0 0 2.23858 0 5V35C0 37.7614 2.23858 40 5 40H125C127.761 40 130 37.7614 130 35V5C130 2.23858 127.761 0 125 0H5Z" fill="#DFE3FF"/>
<path d="M20.5 30C25.7467 30 30 25.7467 30 20.5C30 15.2533 25.7467 11 20.5 11C15.2533 11 11 15.2533 11 20.5C11 25.7467 15.2533 30 20.5 30Z" fill="#DFE3FF"/>
<path d="M24.6797 20.2739H23.0807C23.0637 19.9798 23.0242 19.6874 22.9625 19.3994C22.9016 19.1116 22.8175 18.8292 22.7109 18.5549H24.1993C24.2059 18.5541 24.2126 18.5554 24.2183 18.5587C24.2241 18.5621 24.2286 18.5672 24.2311 18.5733C24.4164 18.9398 24.5466 19.3313 24.6177 19.7355C24.6463 19.8959 24.6659 20.0578 24.6764 20.2204C24.676 20.2271 24.676 20.2338 24.6764 20.2405V20.2739H24.6797Z" fill="#40196D"/>
<path d="M24.6793 20.7505C24.6793 20.7781 24.6743 20.8057 24.6718 20.8341C24.6435 21.2373 24.5542 21.6339 24.4068 22.0105C24.3624 22.1258 24.3087 22.2379 24.2601 22.3516C24.2584 22.3567 24.2549 22.3611 24.2503 22.364C24.2457 22.3669 24.2403 22.3681 24.2349 22.3675H22.7709H22.7524C22.8515 22.1016 22.9286 21.8281 22.983 21.5498C23.0373 21.2718 23.0701 20.99 23.0811 20.707H24.6793V20.7505Z" fill="#40196D"/>
<path d="M20.9925 16.3193L21.1016 16.3361C21.3632 16.3743 21.6206 16.437 21.8705 16.5233C22.238 16.6501 22.5858 16.828 22.9035 17.0517C23.3117 17.3337 23.6625 17.6903 23.9374 18.1027L23.9508 18.1244H23.9315H22.5295C22.5234 18.1248 22.5173 18.1232 22.5123 18.1197C22.5072 18.1162 22.5036 18.111 22.5018 18.1052C22.3493 17.8037 22.1667 17.5182 21.9568 17.2532C21.7276 16.9685 21.4614 16.7155 21.1653 16.5008C21.1057 16.4565 21.0437 16.4172 20.9833 16.372L20.9666 16.3603L20.9858 16.3461L20.9758 16.3193H20.9925Z" fill="#40196D"/>
<path d="M20.6604 18.556H22.1764C22.184 18.5549 22.1918 18.5566 22.1983 18.5607C22.2047 18.5649 22.2095 18.5712 22.2116 18.5786C22.3634 18.9266 22.4729 19.2915 22.5378 19.6655C22.5715 19.8591 22.5942 20.0545 22.6057 20.2507C22.6057 20.2507 22.6057 20.2566 22.6057 20.2607H20.6604V18.556Z" fill="#40196D"/>
<path d="M20.6482 22.3662V20.7158H22.596C22.596 20.7518 22.596 20.7869 22.591 20.822C22.5711 21.1325 22.5217 21.4405 22.4434 21.7417C22.3895 21.9482 22.322 22.151 22.2413 22.3487C22.2399 22.3543 22.2365 22.3592 22.2317 22.3624C22.2269 22.3656 22.2211 22.367 22.2153 22.3662H20.6482Z" fill="#40196D"/>
<path d="M18.3145 20.2731C18.3203 20.1996 18.3245 20.1277 18.3321 20.0558C18.3504 19.8758 18.3784 19.6969 18.4159 19.5198C18.4827 19.1983 18.5827 18.8845 18.7144 18.5834C18.7161 18.5783 18.7196 18.5739 18.7241 18.571C18.7287 18.5681 18.7342 18.5669 18.7396 18.5676H20.2195V20.2731H18.3145Z" fill="#40196D"/>
<path d="M20.2194 22.367H18.7001C18.6925 22.3679 18.6848 22.366 18.6785 22.3617C18.6722 22.3574 18.6676 22.351 18.6657 22.3436C18.5362 22.0303 18.4418 21.7036 18.3839 21.3696C18.3469 21.1568 18.3239 20.9417 18.3152 20.7259C18.3152 20.7259 18.3152 20.72 18.3152 20.7158H20.2186L20.2194 22.367Z" fill="#40196D"/>
<path d="M18.2039 18.5557C18.1838 18.6108 18.1637 18.6627 18.1452 18.7145C17.9692 19.2067 17.8642 19.7212 17.8333 20.2428C17.8339 20.2457 17.8337 20.2487 17.8328 20.2515C17.8319 20.2543 17.8302 20.2568 17.828 20.2588C17.8258 20.2607 17.8231 20.262 17.8202 20.2626C17.8173 20.2632 17.8143 20.263 17.8115 20.2621H16.3198C16.3198 20.2178 16.3257 20.1785 16.329 20.1325C16.357 19.8228 16.4183 19.517 16.5118 19.2203C16.5817 18.9996 16.668 18.7844 16.7701 18.5766C16.772 18.5708 16.7757 18.5659 16.7807 18.5626C16.7858 18.5592 16.7918 18.5577 16.7978 18.5582H18.2039V18.5557Z" fill="#40196D"/>
<path d="M18.1594 22.3672H16.7717C16.764 22.3682 16.7562 22.3664 16.7496 22.3623C16.743 22.3582 16.7381 22.3519 16.7356 22.3446C16.5642 21.9856 16.4437 21.6046 16.3776 21.2126C16.3502 21.0506 16.3311 20.8874 16.3206 20.7235C16.3206 20.7176 16.3206 20.7126 16.3206 20.7051H17.8299C17.8519 21.2729 17.9631 21.8337 18.1594 22.3672Z" fill="#40196D"/>
<path d="M20.9666 24.6585L21.0328 24.6126C21.3331 24.4044 21.6066 24.1601 21.847 23.8852C22.122 23.5681 22.3545 23.2168 22.5387 22.8401C22.5424 22.8285 22.5503 22.8186 22.5608 22.8125C22.5713 22.8063 22.5838 22.8042 22.5958 22.8067H24.0002C23.9784 22.8401 23.9592 22.8702 23.939 22.9003C23.8058 23.0936 23.6572 23.2759 23.4946 23.4454C23.2693 23.6803 23.0158 23.8867 22.74 24.0599C22.4613 24.2379 22.162 24.3817 21.8487 24.488C21.5938 24.5751 21.3309 24.6367 21.0638 24.6719L21.0202 24.6786C21.0103 24.6797 21.0003 24.6784 20.991 24.6749C20.9817 24.6714 20.9733 24.6658 20.9666 24.6585Z" fill="#40196D"/>
<path d="M19.9433 24.6629C19.9291 24.6645 19.9147 24.6645 19.9005 24.6629C19.1223 24.5546 18.3914 24.2265 17.7942 23.7173C17.4871 23.4575 17.2224 23.1518 17.0094 22.811L17.001 22.7951H18.3199C18.3279 22.7943 18.336 22.7961 18.3429 22.8003C18.3497 22.8046 18.3549 22.811 18.3577 22.8185C18.5061 23.1204 18.6854 23.4062 18.8926 23.6713C19.0739 23.9006 19.2751 24.1135 19.4938 24.3076C19.632 24.4308 19.7782 24.5447 19.9315 24.6487L19.9399 24.6545V24.6629H19.9433Z" fill="#40196D"/>
<path d="M19.9188 16.334L19.9389 16.3566L19.8937 16.3875C19.6016 16.594 19.3341 16.833 19.0962 17.0998C18.8239 17.3981 18.5939 17.7323 18.4129 18.0931C18.4103 18.1001 18.4054 18.1061 18.399 18.11C18.3926 18.1139 18.3851 18.1156 18.3776 18.1148H17.0444C17.7538 17.1132 18.7055 16.5121 19.9163 16.3281L19.9188 16.334Z" fill="#40196D"/>
<path d="M22.0283 22.8096C21.6889 23.4067 21.2171 23.9186 20.6489 24.3061V22.8096H22.0283Z" fill="#40196D"/>
<path d="M18.8955 22.8086H20.2195V24.2759C19.6685 23.8975 19.2149 23.3948 18.8955 22.8086Z" fill="#40196D"/>
<path d="M21.9837 18.1122H20.6597V16.7168C21.2026 17.0743 21.6557 17.5518 21.9837 18.1122Z" fill="#40196D"/>
<path d="M20.2199 16.7598V18.1251H18.9487C19.2594 17.577 19.6948 17.1093 20.2199 16.7598Z" fill="#40196D"/>
<path d="M42.5109 30.5823C41.6869 30.5823 40.9669 30.4063 40.3509 30.0543C39.7429 29.6943 39.2709 29.1863 38.9349 28.5303C38.6069 27.8663 38.4429 27.0863 38.4429 26.1903C38.4429 25.3023 38.6069 24.5303 38.9349 23.8743C39.2629 23.2103 39.7309 22.7023 40.3389 22.3503C40.9549 21.9983 41.6789 21.8223 42.5109 21.8223C43.3429 21.8223 44.0629 21.9983 44.6709 22.3503C45.2869 22.7023 45.7549 23.2103 46.0749 23.8743C46.4029 24.5303 46.5669 25.3023 46.5669 26.1903C46.5669 27.0863 46.4029 27.8663 46.0749 28.5303C45.7469 29.1863 45.2789 29.6943 44.6709 30.0543C44.0629 30.4063 43.3429 30.5823 42.5109 30.5823ZM42.5109 29.3463C43.3029 29.3463 43.9189 29.0743 44.3589 28.5303C44.7989 27.9863 45.0189 27.2063 45.0189 26.1903C45.0189 25.1823 44.7989 24.4103 44.3589 23.8743C43.9189 23.3303 43.3029 23.0583 42.5109 23.0583C41.7189 23.0583 41.1029 23.3263 40.6629 23.8623C40.2229 24.3983 40.0029 25.1743 40.0029 26.1903C40.0029 27.2063 40.2229 27.9863 40.6629 28.5303C41.1029 29.0743 41.7189 29.3463 42.5109 29.3463Z" fill="#DFE3FF"/>
<path d="M51.5125 24.2588C52.9605 24.2588 53.6845 25.0908 53.6845 26.7548V30.4748H52.1845V26.8268C52.1845 26.3468 52.0925 25.9988 51.9085 25.7828C51.7245 25.5588 51.4405 25.4468 51.0565 25.4468C50.6005 25.4468 50.2325 25.5948 49.9525 25.8908C49.6725 26.1788 49.5325 26.5628 49.5325 27.0428V30.4748H48.0445V26.1308C48.0445 25.4908 48.0125 24.9188 47.9485 24.4148H49.3525L49.4605 25.4108C49.6685 25.0428 49.9485 24.7588 50.3005 24.5588C50.6605 24.3588 51.0645 24.2588 51.5125 24.2588Z" fill="#DFE3FF"/>
<path d="M60.6799 30.4747V23.2027H57.8959V21.9307H65.0359V23.2027H62.2399V30.4747H60.6799Z" fill="#DFE3FF"/>
<path d="M69.4656 24.2586C70.9136 24.2586 71.6376 25.0906 71.6376 26.7546V30.4746H70.1376V26.8266C70.1376 26.3466 70.0456 25.9986 69.8616 25.7826C69.6776 25.5586 69.3936 25.4466 69.0096 25.4466C68.5536 25.4466 68.1856 25.5946 67.9056 25.8906C67.6256 26.1786 67.4856 26.5626 67.4856 27.0426V30.4746H65.9976V21.6426H67.4856V25.2906C67.6936 24.9626 67.9696 24.7106 68.3136 24.5346C68.6576 24.3506 69.0416 24.2586 69.4656 24.2586Z" fill="#DFE3FF"/>
<path d="M78.5321 27.5228H74.3561C74.3881 28.1708 74.5481 28.6508 74.8361 28.9628C75.1321 29.2668 75.5681 29.4188 76.1441 29.4188C76.8081 29.4188 77.4241 29.2028 77.9921 28.7708L78.4241 29.8028C78.1361 30.0348 77.7801 30.2228 77.3561 30.3668C76.9401 30.5028 76.5161 30.5708 76.0841 30.5708C75.0921 30.5708 74.3121 30.2908 73.7441 29.7308C73.1761 29.1708 72.8921 28.4028 72.8921 27.4268C72.8921 26.8108 73.0161 26.2628 73.2641 25.7828C73.5121 25.3028 73.8601 24.9308 74.3081 24.6668C74.7561 24.3948 75.2641 24.2588 75.8321 24.2588C76.6641 24.2588 77.3201 24.5308 77.8001 25.0748C78.2881 25.6108 78.5321 26.3508 78.5321 27.2948V27.5228ZM75.8681 25.3388C75.4681 25.3388 75.1401 25.4588 74.8841 25.6988C74.6361 25.9308 74.4761 26.2708 74.4041 26.7188H77.2241C77.1761 26.2628 77.0361 25.9188 76.8041 25.6868C76.5801 25.4548 76.2681 25.3388 75.8681 25.3388Z" fill="#DFE3FF"/>
<path d="M93.9552 21.9307H95.4432L92.4192 30.4747H91.1592L89.0112 24.3307L86.8392 30.4747H85.5792L82.5672 21.9307H84.1392L86.2752 28.3027L88.4952 21.9307H89.5992L91.7712 28.3507L93.9552 21.9307Z" fill="#DFE3FF"/>
<path d="M101.138 27.5228H96.9615C96.9935 28.1708 97.1535 28.6508 97.4415 28.9628C97.7375 29.2668 98.1735 29.4188 98.7495 29.4188C99.4135 29.4188 100.03 29.2028 100.598 28.7708L101.03 29.8028C100.742 30.0348 100.386 30.2228 99.9615 30.3668C99.5455 30.5028 99.1215 30.5708 98.6895 30.5708C97.6975 30.5708 96.9175 30.2908 96.3495 29.7308C95.7815 29.1708 95.4975 28.4028 95.4975 27.4268C95.4975 26.8108 95.6215 26.2628 95.8695 25.7828C96.1175 25.3028 96.4655 24.9308 96.9135 24.6668C97.3615 24.3948 97.8695 24.2588 98.4375 24.2588C99.2695 24.2588 99.9255 24.5308 100.406 25.0748C100.894 25.6108 101.138 26.3508 101.138 27.2948V27.5228ZM98.4735 25.3388C98.0735 25.3388 97.7455 25.4588 97.4895 25.6988C97.2415 25.9308 97.0815 26.2708 97.0095 26.7188H99.8295C99.7815 26.2628 99.6415 25.9188 99.4095 25.6868C99.1855 25.4548 98.8735 25.3388 98.4735 25.3388Z" fill="#DFE3FF"/>
<path d="M105.864 24.2586C106.392 24.2586 106.856 24.3906 107.256 24.6546C107.664 24.9106 107.98 25.2746 108.204 25.7466C108.428 26.2186 108.54 26.7666 108.54 27.3906C108.54 28.0146 108.424 28.5706 108.192 29.0586C107.968 29.5386 107.652 29.9106 107.244 30.1746C106.844 30.4386 106.384 30.5706 105.864 30.5706C105.416 30.5706 105.016 30.4746 104.664 30.2826C104.32 30.0906 104.06 29.8226 103.884 29.4786V30.4746H102.408V21.6426H103.896V25.3266C104.08 24.9906 104.344 24.7306 104.688 24.5466C105.032 24.3546 105.424 24.2586 105.864 24.2586ZM105.468 29.3946C105.964 29.3946 106.348 29.2186 106.62 28.8666C106.892 28.5146 107.028 28.0226 107.028 27.3906C107.028 26.7666 106.892 26.2866 106.62 25.9506C106.348 25.6066 105.96 25.4346 105.456 25.4346C104.952 25.4346 104.564 25.6066 104.292 25.9506C104.02 26.2946 103.884 26.7826 103.884 27.4146C103.884 28.0546 104.02 28.5466 104.292 28.8906C104.564 29.2266 104.956 29.3946 105.468 29.3946Z" fill="#DFE3FF"/>
<path d="M40.6569 16.0808C40.1649 16.0808 39.7029 16.0148 39.2709 15.8828C38.8449 15.7508 38.4819 15.5618 38.1819 15.3158L38.5779 14.4698C38.8899 14.7038 39.2139 14.8778 39.5499 14.9918C39.8919 15.0998 40.2639 15.1538 40.6659 15.1538C41.1099 15.1538 41.4519 15.0758 41.6919 14.9198C41.9379 14.7638 42.0609 14.5448 42.0609 14.2628C42.0609 14.0228 41.9469 13.8398 41.7189 13.7138C41.4969 13.5818 41.1279 13.4588 40.6119 13.3448C39.8079 13.1708 39.2229 12.9458 38.8569 12.6698C38.4909 12.3938 38.3079 11.9918 38.3079 11.4638C38.3079 11.0858 38.4099 10.7498 38.6139 10.4558C38.8179 10.1618 39.1059 9.93074 39.4779 9.76274C39.8559 9.59474 40.2909 9.51074 40.7829 9.51074C41.2329 9.51074 41.6589 9.57974 42.0609 9.71774C42.4689 9.84974 42.8019 10.0358 43.0599 10.2758L42.6729 11.1218C42.1029 10.6658 41.4729 10.4378 40.7829 10.4378C40.3689 10.4378 40.0419 10.5248 39.8019 10.6988C39.5619 10.8668 39.4419 11.0978 39.4419 11.3918C39.4419 11.6438 39.5469 11.8358 39.7569 11.9678C39.9729 12.0998 40.3389 12.2228 40.8549 12.3368C41.3889 12.4628 41.8239 12.6008 42.1599 12.7508C42.4959 12.8948 42.7539 13.0838 42.9339 13.3178C43.1139 13.5458 43.2039 13.8338 43.2039 14.1818C43.2039 14.5658 43.1019 14.9018 42.8979 15.1898C42.6939 15.4718 42.3999 15.6908 42.0159 15.8468C41.6319 16.0028 41.1789 16.0808 40.6569 16.0808Z" fill="#DFE3FF"/>
<path d="M44.1989 15.9996V11.4546H45.3149V15.9996H44.1989ZM44.1269 9.39355H45.3779V10.5006H44.1269V9.39355Z" fill="#DFE3FF"/>
<path d="M50.9376 11.4549V15.8559C50.9376 16.5639 50.7426 17.1009 50.3526 17.4669C49.9626 17.8329 49.3896 18.0159 48.6336 18.0159C47.9316 18.0159 47.3136 17.8689 46.7796 17.5749L46.9596 16.7199C47.5116 17.0079 48.0606 17.1519 48.6066 17.1519C49.4166 17.1519 49.8216 16.7499 49.8216 15.9459V15.0459C49.6836 15.2919 49.4826 15.4929 49.2186 15.6489C48.9546 15.7989 48.6576 15.8739 48.3276 15.8739C47.9316 15.8739 47.5776 15.7809 47.2656 15.5949C46.9596 15.4029 46.7196 15.1359 46.5456 14.7939C46.3776 14.4459 46.2936 14.0499 46.2936 13.6059C46.2936 13.1619 46.3776 12.7689 46.5456 12.4269C46.7196 12.0789 46.9596 11.8119 47.2656 11.6259C47.5776 11.4339 47.9316 11.3379 48.3276 11.3379C48.6636 11.3379 48.9606 11.4099 49.2186 11.5539C49.4826 11.6919 49.6836 11.8869 49.8216 12.1389V11.4549H50.9376ZM48.6246 14.9919C48.9966 14.9919 49.2876 14.8689 49.4976 14.6229C49.7136 14.3769 49.8216 14.0379 49.8216 13.6059C49.8216 13.1739 49.7166 12.8349 49.5066 12.5889C49.2966 12.3429 49.0026 12.2199 48.6246 12.2199C48.2526 12.2199 47.9586 12.3429 47.7426 12.5889C47.5326 12.8349 47.4276 13.1739 47.4276 13.6059C47.4276 14.0379 47.5326 14.3769 47.7426 14.6229C47.9586 14.8689 48.2526 14.9919 48.6246 14.9919Z" fill="#DFE3FF"/>
<path d="M54.754 11.3379C55.84 11.3379 56.383 11.9619 56.383 13.2099V15.9999H55.258V13.2639C55.258 12.9039 55.189 12.6429 55.051 12.4809C54.913 12.3129 54.7 12.2289 54.412 12.2289C54.07 12.2289 53.794 12.3399 53.584 12.5619C53.374 12.7779 53.269 13.0659 53.269 13.4259V15.9999H52.153V12.7419C52.153 12.2619 52.129 11.8329 52.081 11.4549H53.134L53.215 12.2019C53.371 11.9259 53.581 11.7129 53.845 11.5629C54.115 11.4129 54.418 11.3379 54.754 11.3379Z" fill="#DFE3FF"/>
<path d="M60.0456 15.9996V11.4546H61.1616V15.9996H60.0456ZM59.9736 9.39355H61.2246V10.5006H59.9736V9.39355Z" fill="#DFE3FF"/>
<path d="M64.9932 11.3379C66.0792 11.3379 66.6222 11.9619 66.6222 13.2099V15.9999H65.4972V13.2639C65.4972 12.9039 65.4282 12.6429 65.2902 12.4809C65.1522 12.3129 64.9392 12.2289 64.6512 12.2289C64.3092 12.2289 64.0332 12.3399 63.8232 12.5619C63.6132 12.7779 63.5082 13.0659 63.5082 13.4259V15.9999H62.3922V12.7419C62.3922 12.2619 62.3682 11.8329 62.3202 11.4549H63.3732L63.4542 12.2019C63.6102 11.9259 63.8202 11.7129 64.0842 11.5629C64.3542 11.4129 64.6572 11.3379 64.9932 11.3379Z" fill="#DFE3FF"/>
<path d="M71.7158 12.3008V14.3348C71.7158 14.8688 71.9648 15.1358 72.4628 15.1358C72.6008 15.1358 72.7508 15.1118 72.9128 15.0638V15.9548C72.7148 16.0268 72.4748 16.0628 72.1928 16.0628C71.6768 16.0628 71.2808 15.9188 71.0048 15.6308C70.7288 15.3428 70.5908 14.9288 70.5908 14.3888V12.3008H69.7178V11.4548H70.5908V10.3478L71.7158 9.96973V11.4548H72.9218V12.3008H71.7158Z" fill="#DFE3FF"/>
<path d="M75.756 16.0719C75.294 16.0719 74.886 15.9759 74.532 15.7839C74.184 15.5919 73.914 15.3189 73.722 14.9649C73.536 14.6049 73.443 14.1849 73.443 13.7049C73.443 13.2249 73.536 12.8079 73.722 12.4539C73.914 12.0939 74.184 11.8179 74.532 11.6259C74.886 11.4339 75.294 11.3379 75.756 11.3379C76.212 11.3379 76.614 11.4339 76.962 11.6259C77.31 11.8179 77.577 12.0939 77.763 12.4539C77.955 12.8079 78.051 13.2249 78.051 13.7049C78.051 14.1849 77.955 14.6049 77.763 14.9649C77.577 15.3189 77.31 15.5919 76.962 15.7839C76.614 15.9759 76.212 16.0719 75.756 16.0719ZM75.747 15.1899C76.131 15.1899 76.422 15.0669 76.62 14.8209C76.824 14.5689 76.926 14.1969 76.926 13.7049C76.926 13.2189 76.824 12.8499 76.62 12.5979C76.416 12.3399 76.128 12.2109 75.756 12.2109C75.378 12.2109 75.087 12.3399 74.883 12.5979C74.679 12.8499 74.577 13.2189 74.577 13.7049C74.577 14.1969 74.676 14.5689 74.874 14.8209C75.078 15.0669 75.369 15.1899 75.747 15.1899Z" fill="#DFE3FF"/>
<path d="M96.0246 16.0144H94.5222L92.6992 13.7407V16.0144H91.4071V9.00293H92.6992V13.2098L94.422 11.0062H95.9645L93.9512 13.4802L96.0246 16.0144Z" fill="#DFE3FF"/>
<path d="M99.3787 11.0059H100.671V16.0141H99.3787V15.4532C99.0649 15.9206 98.5674 16.1543 97.8863 16.1543C97.3387 16.1543 96.8846 15.9707 96.524 15.6034C96.1701 15.2361 95.9932 14.7286 95.9932 14.0809V11.0059H97.2853V13.9206C97.2853 14.2545 97.3754 14.5116 97.5557 14.6919C97.736 14.8655 97.9764 14.9523 98.2769 14.9523C98.6108 14.9523 98.8779 14.8488 99.0782 14.6418C99.2785 14.4348 99.3787 14.1243 99.3787 13.7103V11.0059Z" fill="#DFE3FF"/>
<path d="M105.25 9.00293H106.542V16.0144H105.25V15.4234C104.869 15.9109 104.328 16.1546 103.627 16.1546C102.953 16.1546 102.375 15.9009 101.894 15.3934C101.42 14.8792 101.183 14.2515 101.183 13.5103C101.183 12.7691 101.42 12.1447 101.894 11.6372C102.375 11.123 102.953 10.866 103.627 10.866C104.328 10.866 104.869 11.1097 105.25 11.5972V9.00293ZM102.866 14.5319C103.133 14.7924 103.467 14.9226 103.868 14.9226C104.268 14.9226 104.599 14.7924 104.859 14.5319C105.12 14.2648 105.25 13.9243 105.25 13.5103C105.25 13.0963 105.12 12.759 104.859 12.4986C104.599 12.2315 104.268 12.098 103.868 12.098C103.467 12.098 103.133 12.2315 102.866 12.4986C102.605 12.759 102.475 13.0963 102.475 13.5103C102.475 13.9243 102.605 14.2648 102.866 14.5319Z" fill="#DFE3FF"/>
<path d="M111.129 11.0064H112.421V16.0146H111.129V15.4236C110.742 15.9111 110.198 16.1548 109.496 16.1548C108.829 16.1548 108.254 15.9011 107.774 15.3936C107.3 14.8794 107.063 14.2517 107.063 13.5105C107.063 12.7693 107.3 12.1449 107.774 11.6374C108.254 11.1232 108.829 10.8662 109.496 10.8662C110.198 10.8662 110.742 11.1099 111.129 11.5974V11.0064ZM108.745 14.5321C109.006 14.7926 109.336 14.9228 109.737 14.9228C110.138 14.9228 110.468 14.7926 110.729 14.5321C110.996 14.265 111.129 13.9245 111.129 13.5105C111.129 13.0965 110.996 12.7592 110.729 12.4988C110.468 12.2317 110.138 12.0982 109.737 12.0982C109.336 12.0982 109.006 12.2317 108.745 12.4988C108.485 12.7592 108.355 13.0965 108.355 13.5105C108.355 13.9245 108.485 14.265 108.745 14.5321Z" fill="#DFE3FF"/>
<path d="M114.545 15.8938C114.378 16.0607 114.177 16.1442 113.944 16.1442C113.71 16.1442 113.509 16.0607 113.343 15.8938C113.176 15.7268 113.092 15.5265 113.092 15.2928C113.092 15.0591 113.176 14.8587 113.343 14.6918C113.509 14.5249 113.71 14.4414 113.944 14.4414C114.177 14.4414 114.378 14.5249 114.545 14.6918C114.711 14.8587 114.795 15.0591 114.795 15.2928C114.795 15.5265 114.711 15.7268 114.545 15.8938Z" fill="#DFE3FF"/>
<path d="M86.6744 9H88.2565L85.588 12.5071L88.2565 16.0142H86.6744L84.006 12.5071L86.6744 9Z" fill="#DFE3FF"/>
<path d="M84.7684 9H85.8739L83.9678 12.5071L85.8739 16.0142H84.7684L82.8623 12.5071L84.7684 9Z" fill="#DFE3FF"/>
<path d="M83.6247 9H84.2537L82.8242 12.5071L84.2537 16.0142H83.6247L82.1952 12.5071L83.6247 9Z" fill="#DFE3FF"/>
<path d="M81.7949 9H82.1475V16.0142H81.7949V9Z" fill="#DFE3FF"/>
</svg>
